/* XPM */
static char *_00383af42b2438ca0522f38dd98907fcweqm8DlN0MSPrZU[] = {
/* columns rows colors chars-per-pixel */
"128 128 12 1 ",
"  c #A846A8",
". c #7A2C67",
"X c #7F2F6E",
"o c #A343A2",
"O c #7A2C68",
"+ c #7E2E6D",
"@ c #833174",
"# c #A444A2",
"$ c #9F419C",
"% c #A846A7",
"& c #A0419C",
"* c #823173",
/* pixels */
"                        ...Xo                                                                                                   ",
"                        ...Xo                                                                                                   ",
"                        ...Xo                                                                                                   ",
"                        ...Xo                                                                                                   ",
"                        ...Xo                                                                                                   ",
"                        ...Xo                                                                                                   ",
"                        ...Xo                                                                                                   ",
"                        ...Xo                                                                                                   ",
"                        ...Xo                                                                                                   ",
"                        ...Xo                                                                                                   ",
"                        ...Xo                                                                                                   ",
"                        ...Xo                                                                                                   ",
"                        ...Xo                                                                                                   ",
"                        ...Xo                                                                                                   ",
"                        ...Xo                                                                                                   ",
"                        ...Xo                                                                                                   ",
"                        ........................................                                ...........................Xo   ",
"                        ........................................                                ...........................Xo   ",
"                        ........................................                                ...........................Xo   ",
"                        XXXXXXXXXXXXXXXXXXXXXXXXXXXXXXXX........oooooooooooooooooooooooooooooooo...O+XXXXXX+O...XXXXXXXXXXX@#   ",
"                        oooooooooooooooooooooooooooooooo........XXXXXXXXXXXXXXXXXXXXXXXXXXXXXXXX...+$oooooo$+...ooooooooooo#%   ",
"                                                        ...........................................Xo      oX...                ",
"                                                        ...........................................Xo      oX...                ",
"                                                        ...........................................Xo      oX...                ",
"                                                        ...Xo                                              oX...                ",
"                                                        ...Xo                                              oX...                ",
"                                                        ...Xo                                              oX...                ",
"                                                        ...Xo                                              oX...                ",
"                                                        ...Xo                                              oX...                ",
"                                                        ...Xo                                              oX...                ",
"                                                        ...Xo                                              oX...                ",
"                                                        ...Xo                                              oX...                ",
"                                                        ...Xo                                              oX...                ",
"                                                        ...Xo                                              oX...                ",
"                                                        ...Xo                                              oX...                ",
"                                                        ...Xo                                              oX...                ",
"                                                        ...Xo                                              oX...                ",
"                                                        ...Xo                                              oX...                ",
"                                                        ...Xo                                              oX...                ",
"                                                        ...Xo                                              oX...                ",
"................................................................................                           oX...................",
"................................................................................                           oX...................",
"................................................................................                           oX...................",
"XXXXXXXXXXXXXXXXXXX+O...XXXXXXXXXXXXXXXXXXXXXXXXXXXXXXXXXXXXXXXXXXXXXXXXXXXXXXXX                           #@XXXXXXXXXXXXXXXXXXX",
"ooooooooooooooooooo$+...oooooooooooooooooooooooooooooooooooooooooooooooooooooooo                           %#ooooooooooooooooooo",
"                   oX...                                                                                                        ",
"                   oX...                                                                                                        ",
"                   oX...                                                                                                        ",
"                   oX...                                                                                                        ",
"                   oX...                                                                                                        ",
"                   oX...                                                                                                        ",
"                   oX...                                                                                                        ",
"                   oX...                                                                                                        ",
"                   oX...                                                                                                        ",
"                   oX...                                                                                                        ",
"                   oX...                                                                                                        ",
"                   oX...                                                                                                        ",
"                   oX...                                                                                                        ",
"                   oX...                                                                                                        ",
"                   oX...                                                                                                        ",
"                   oX...                                                                                                        ",
"                   oX...                                                                                                        ",
"                   oX...                                                                                                        ",
"                   oX...                                                                                                        ",
"                   oX...                                                                                   oX......Xo           ",
"                   oX...                                                                                   oX......Xo           ",
"                   oX...                                                                                   oX......Xo           ",
"                   #@XXXoooooooooooooooooooooooooooooooo                                   %#oooooooooooooo&*XXXXXX@#           ",
"                   %#oooXXXXXXXXXXXXXXXXXXXXXXXXXXXXXXXX                                   #@XXXXXXXXXXXXXX*&oooooo#%           ",
"                        ................................                                   oX..............Xo                   ",
"                        ................................                                   oX..............Xo                   ",
"                        ................................                                   oX..............Xo                   ",
"                                                   oX......................................Xo                                   ",
"                                                   oX......................................Xo                                   ",
"                                                   oX......................................Xo                                   ",
"                                                   #@XXXXXXXXXXX...O+XXXXXXXXXXXXXXXXXXXXXX@#                                   ",
"                                                   %#ooooooooooo...+$oooooooooooooooooooooo#%                                   ",
"                                                                ...Xo                                                           ",
"                                                                ...Xo                                                           ",
"                                                                ...Xo                                                           ",
"                                                                ...Xo                                                           ",
"                                                                ...Xo                                                           ",
"                                                                ...Xo                                                           ",
"                                                                XXX*&ooo                                                        ",
"                                                                ooo&*XXX                                                        ",
"                                                                   oX...                                                        ",
"                                                                   oX...                                                        ",
"                                                                   oX...                                                        ",
"                                                                   oX...                                                        ",
"                                                                   oX...                                                        ",
"                                                                   oX...                                                        ",
"                                                                   oX...                                                        ",
"                                                                   oX...                                                        ",
"                                                                   oX...                                                        ",
"                                                                   oX...                                                        ",
"                                                                   oX...                                                        ",
"                                                                   oX...                                                        ",
"                                                                   oX...                                                        ",
"                                                                   oX...                                                        ",
"                                                                   oX...                                                        ",
"                                                                   oX...                                                        ",
"                                                                   oX...                                                        ",
"                                                                   oX...                                                        ",
"                                                                   oX...                                                        ",
"                                                                   oX...                                                        ",
"                                                                   oX...                                                        ",
"                                                                   oX...                                                        ",
"                                                                   #@XXX                                                        ",
"                                                                   %#ooo                                                        ",
"                                                                                                                                ",
"                                                                                                                                ",
"                                                                                                                                ",
"................................................................                                                ................",
"................................................................                                                ................",
"................................................................                                                ................",
"XXXXXXXXXXXXXXXX........XXXXXXXXXXXXXXXXXXXXXXXXXXXXXXXXXXXXXXXX                                                XXXXXXXXXXXXXXXX",
"oooooooooooooooo........oooooooooooooooooooooooooooooooooooooooo                                                oooooooooooooooo",
"                ........                                                                                                        ",
"                ........                                                                                                        ",
"                ........                                                                                                        ",
"                        ...Xo                                                                                                   ",
"                        ...Xo                                                                                                   ",
"                        ...Xo                                                                                                   ",
"                        ...Xo                                                                                                   ",
"                        ...Xo                                                                                                   ",
"                        ...Xo                                                                                                   ",
"                        ...Xo                                                                                                   ",
"                        ...Xo                                                                                                   "
};
