/* XPM */
static char *_62d835ecb0241618191326b5acfee46fSH51cdKwom8JTPR[] = {
/* columns rows colors chars-per-pixel */
"128 128 7 1 ",
"  c black",
". c #110711",
"X c #0F060F",
"o c #020102",
"O c #973F97",
"+ c #883988",
"@ c #A846A8",
/* pixels */
"                                                                                                                                ",
"                                                                                                                                ",
"                                                                                                                                ",
"...........................Xo   ...........................Xo   ...........................Xo   ...........................Xo   ",
"OOOOOOOOOOOOOOOOOOOOOOOOOOO+X   OOOOOOOOOOOOOOOOOOOOOOOOOOO+X   OOOOOOOOOOOOOOOOOOOOOOOOOOO+X   OOOOOOOOOOOOOOOOOOOOOOOOOOO+X   ",
"@@@@@@@@@@@@@@@@@@@@@@@@@@@O.   @@@@@@@@@@@@@@@@@@@@@@@@@@@O.   @@@@@@@@@@@@@@@@@@@@@@@@@@@O.   @@@@@@@@@@@@@@@@@@@@@@@@@@@O.   ",
"@@@@@@@@@@@@@@@@@@@@@@@@@@@O.   @@@@@@@@@@@@@@@@@@@@@@@@@@@O.   @@@@@@@@@@@@@@@@@@@@@@@@@@@O.   @@@@@@@@@@@@@@@@@@@@@@@@@@@O.   ",
"@@@@@@@@@@@@@@@@@@@@@@@@@@@O.   @@@@@@@@@@@@@@@@@@@@@@@@@@@O.   @@@@@@@@@@@@@@@@@@@@@@@@@@@O.   @@@@@@@@@@@@@@@@@@@@@@@@@@@O.   ",
"   .O@@@@@@@@@@@@@@@@@@@@@@@@@@@   .O@@@@@@@@@@@@@@@@@@@@@@@@@@@   .O@@@@@@@@@@@@@@@@@@@@@@@@@@@   .O@@@@@@@@@@@@@@@@@@@@@@@@@@@",
"   .O@@@@@@@@@@@@@@@@@@@@@@@@@@@   .O@@@@@@@@@@@@@@@@@@@@@@@@@@@   .O@@@@@@@@@@@@@@@@@@@@@@@@@@@   .O@@@@@@@@@@@@@@@@@@@@@@@@@@@",
"   .O@@@@@@@@@@@@@@@@@@@@@@@@@@@   .O@@@@@@@@@@@@@@@@@@@@@@@@@@@   .O@@@@@@@@@@@@@@@@@@@@@@@@@@@   .O@@@@@@@@@@@@@@@@@@@@@@@@@@@",
"   .O@@@@@@@@@@@@@@@@@@@@@@@@@@@   .O@@@@@@@@@@@@@@@@@@@@@@@@@@@   .O@@@@@@@@@@@@@@@@@@@@@@@@@@@   .O@@@@@@@@@@@@@@@@@@@@@@@@@@@",
"   .O@@@@@@@@@@@@@@@@@@@@@@@@@@@   .O@@@@@@@@@@@@@@@@@@@@@@@@@@@   .O@@@@@@@@@@@@@@@@@@@@@@@@@@@   .O@@@@@@@@@@@@@@@@@@@@@@@@@@@",
"   .O@@@@@@@@@@@@@@@@@@@@@@@@@@@   .O@@@@@@@@@@@@@@@@@@@@@@@@@@@   .O@@@@@@@@@@@@@@@@@@@@@@@@@@@   .O@@@@@@@@@@@@@@@@@@@@@@@@@@@",
"   .O@@@@@@@@@@@@@@@@@@@@@@@@@@@   .O@@@@@@@@@@@@@@@@@@@@@@@@@@@   .O@@@@@@@@@@@@@@@@@@@@@@@@@@@   .O@@@@@@@@@@@@@@@@@@@@@@@@@@@",
"   .O@@@@@@@@@@@@@@@@@@@@@@@@@@@   .O@@@@@@@@@@@@@@@@@@@@@@@@@@@   .O@@@@@@@@@@@@@@@@@@@@@@@@@@@   .O@@@@@@@@@@@@@@@@@@@@@@@@@@@",
"                                                                                                                                ",
"                                                                                                                                ",
"                                                                                                                                ",
"...........Xo   ...........................Xo   ...........................Xo   ...........................Xo   ................",
"OOOOOOOOOOO+X   OOOOOOOOOOOOOOOOOOOOOOOOOOO+X   OOOOOOOOOOOOOOOOOOOOOOOOOOO+X   OOOOOOOOOOOOOOOOOOOOOOOOOOO+X   OOOOOOOOOOOOOOOO",
"@@@@@@@@@@@O.   @@@@@@@@@@@@@@@@@@@@@@@@@@@O.   @@@@@@@@@@@@@@@@@@@@@@@@@@@O.   @@@@@@@@@@@@@@@@@@@@@@@@@@@O.   @@@@@@@@@@@@@@@@",
"@@@@@@@@@@@O.   @@@@@@@@@@@@@@@@@@@@@@@@@@@O.   @@@@@@@@@@@@@@@@@@@@@@@@@@@O.   @@@@@@@@@@@@@@@@@@@@@@@@@@@O.   @@@@@@@@@@@@@@@@",
"@@@@@@@@@@@O.   @@@@@@@@@@@@@@@@@@@@@@@@@@@O.   @@@@@@@@@@@@@@@@@@@@@@@@@@@O.   @@@@@@@@@@@@@@@@@@@@@@@@@@@O.   @@@@@@@@@@@@@@@@",
"@@@@@@@@@@@@@@@@   .O@@@@@@@@@@@@@@@@@@@@@@@@@@@   .O@@@@@@@@@@@@@@@@@@@@@@@@@@@   .O@@@@@@@@@@@@@@@@@@@@@@@@@@@   .O@@@@@@@@@@@",
"@@@@@@@@@@@@@@@@   .O@@@@@@@@@@@@@@@@@@@@@@@@@@@   .O@@@@@@@@@@@@@@@@@@@@@@@@@@@   .O@@@@@@@@@@@@@@@@@@@@@@@@@@@   .O@@@@@@@@@@@",
"@@@@@@@@@@@@@@@@   .O@@@@@@@@@@@@@@@@@@@@@@@@@@@   .O@@@@@@@@@@@@@@@@@@@@@@@@@@@   .O@@@@@@@@@@@@@@@@@@@@@@@@@@@   .O@@@@@@@@@@@",
"@@@@@@@@@@@@@@@@   .O@@@@@@@@@@@@@@@@@@@@@@@@@@@   .O@@@@@@@@@@@@@@@@@@@@@@@@@@@   .O@@@@@@@@@@@@@@@@@@@@@@@@@@@   .O@@@@@@@@@@@",
"@@@@@@@@@@@@@@@@   .O@@@@@@@@@@@@@@@@@@@@@@@@@@@   .O@@@@@@@@@@@@@@@@@@@@@@@@@@@   .O@@@@@@@@@@@@@@@@@@@@@@@@@@@   .O@@@@@@@@@@@",
"@@@@@@@@@@@@@@@@   .O@@@@@@@@@@@@@@@@@@@@@@@@@@@   .O@@@@@@@@@@@@@@@@@@@@@@@@@@@   .O@@@@@@@@@@@@@@@@@@@@@@@@@@@   .O@@@@@@@@@@@",
"@@@@@@@@@@@@@@@@   .O@@@@@@@@@@@@@@@@@@@@@@@@@@@   .O@@@@@@@@@@@@@@@@@@@@@@@@@@@   .O@@@@@@@@@@@@@@@@@@@@@@@@@@@   .O@@@@@@@@@@@",
"@@@@@@@@@@@@@@@@   .O@@@@@@@@@@@@@@@@@@@@@@@@@@@   .O@@@@@@@@@@@@@@@@@@@@@@@@@@@   .O@@@@@@@@@@@@@@@@@@@@@@@@@@@   .O@@@@@@@@@@@",
"                                                                                                                                ",
"                                                                                                                                ",
"                                                                                                                                ",
"...........................Xo   ...........................Xo   ...........................Xo   ...........................Xo   ",
"OOOOOOOOOOOOOOOOOOOOOOOOOOO+X   OOOOOOOOOOOOOOOOOOOOOOOOOOO+X   OOOOOOOOOOOOOOOOOOOOOOOOOOO+X   OOOOOOOOOOOOOOOOOOOOOOOOOOO+X   ",
"@@@@@@@@@@@@@@@@@@@@@@@@@@@O.   @@@@@@@@@@@@@@@@@@@@@@@@@@@O.   @@@@@@@@@@@@@@@@@@@@@@@@@@@O.   @@@@@@@@@@@@@@@@@@@@@@@@@@@O.   ",
"@@@@@@@@@@@@@@@@@@@@@@@@@@@O.   @@@@@@@@@@@@@@@@@@@@@@@@@@@O.   @@@@@@@@@@@@@@@@@@@@@@@@@@@O.   @@@@@@@@@@@@@@@@@@@@@@@@@@@O.   ",
"@@@@@@@@@@@@@@@@@@@@@@@@@@@O.   @@@@@@@@@@@@@@@@@@@@@@@@@@@O.   @@@@@@@@@@@@@@@@@@@@@@@@@@@O.   @@@@@@@@@@@@@@@@@@@@@@@@@@@O.   ",
"   .O@@@@@@@@@@@@@@@@@@@@@@@@@@@   .O@@@@@@@@@@@@@@@@@@@@@@@@@@@   .O@@@@@@@@@@@@@@@@@@@@@@@@@@@   .O@@@@@@@@@@@@@@@@@@@@@@@@@@@",
"   .O@@@@@@@@@@@@@@@@@@@@@@@@@@@   .O@@@@@@@@@@@@@@@@@@@@@@@@@@@   .O@@@@@@@@@@@@@@@@@@@@@@@@@@@   .O@@@@@@@@@@@@@@@@@@@@@@@@@@@",
"   .O@@@@@@@@@@@@@@@@@@@@@@@@@@@   .O@@@@@@@@@@@@@@@@@@@@@@@@@@@   .O@@@@@@@@@@@@@@@@@@@@@@@@@@@   .O@@@@@@@@@@@@@@@@@@@@@@@@@@@",
"   .O@@@@@@@@@@@@@@@@@@@@@@@@@@@   .O@@@@@@@@@@@@@@@@@@@@@@@@@@@   .O@@@@@@@@@@@@@@@@@@@@@@@@@@@   .O@@@@@@@@@@@@@@@@@@@@@@@@@@@",
"   .O@@@@@@@@@@@@@@@@@@@@@@@@@@@   .O@@@@@@@@@@@@@@@@@@@@@@@@@@@   .O@@@@@@@@@@@@@@@@@@@@@@@@@@@   .O@@@@@@@@@@@@@@@@@@@@@@@@@@@",
"   .O@@@@@@@@@@@@@@@@@@@@@@@@@@@   .O@@@@@@@@@@@@@@@@@@@@@@@@@@@   .O@@@@@@@@@@@@@@@@@@@@@@@@@@@   .O@@@@@@@@@@@@@@@@@@@@@@@@@@@",
"   .O@@@@@@@@@@@@@@@@@@@@@@@@@@@   .O@@@@@@@@@@@@@@@@@@@@@@@@@@@   .O@@@@@@@@@@@@@@@@@@@@@@@@@@@   .O@@@@@@@@@@@@@@@@@@@@@@@@@@@",
"   .O@@@@@@@@@@@@@@@@@@@@@@@@@@@   .O@@@@@@@@@@@@@@@@@@@@@@@@@@@   .O@@@@@@@@@@@@@@@@@@@@@@@@@@@   .O@@@@@@@@@@@@@@@@@@@@@@@@@@@",
"                                                                                                                                ",
"                                                                                                                                ",
"                                                                                                                                ",
"...........Xo   ...........................Xo   ...........................Xo   ...........................Xo   ................",
"OOOOOOOOOOO+X   OOOOOOOOOOOOOOOOOOOOOOOOOOO+X   OOOOOOOOOOOOOOOOOOOOOOOOOOO+X   OOOOOOOOOOOOOOOOOOOOOOOOOOO+X   OOOOOOOOOOOOOOOO",
"@@@@@@@@@@@O.   @@@@@@@@@@@@@@@@@@@@@@@@@@@O.   @@@@@@@@@@@@@@@@@@@@@@@@@@@O.   @@@@@@@@@@@@@@@@@@@@@@@@@@@O.   @@@@@@@@@@@@@@@@",
"@@@@@@@@@@@O.   @@@@@@@@@@@@@@@@@@@@@@@@@@@O.   @@@@@@@@@@@@@@@@@@@@@@@@@@@O.   @@@@@@@@@@@@@@@@@@@@@@@@@@@O.   @@@@@@@@@@@@@@@@",
"@@@@@@@@@@@O.   @@@@@@@@@@@@@@@@@@@@@@@@@@@O.   @@@@@@@@@@@@@@@@@@@@@@@@@@@O.   @@@@@@@@@@@@@@@@@@@@@@@@@@@O.   @@@@@@@@@@@@@@@@",
"@@@@@@@@@@@@@@@@   .O@@@@@@@@@@@@@@@@@@@@@@@@@@@   .O@@@@@@@@@@@@@@@@@@@@@@@@@@@   .O@@@@@@@@@@@@@@@@@@@@@@@@@@@   .O@@@@@@@@@@@",
"@@@@@@@@@@@@@@@@   .O@@@@@@@@@@@@@@@@@@@@@@@@@@@   .O@@@@@@@@@@@@@@@@@@@@@@@@@@@   .O@@@@@@@@@@@@@@@@@@@@@@@@@@@   .O@@@@@@@@@@@",
"@@@@@@@@@@@@@@@@   .O@@@@@@@@@@@@@@@@@@@@@@@@@@@   .O@@@@@@@@@@@@@@@@@@@@@@@@@@@   .O@@@@@@@@@@@@@@@@@@@@@@@@@@@   .O@@@@@@@@@@@",
"@@@@@@@@@@@@@@@@   .O@@@@@@@@@@@@@@@@@@@@@@@@@@@   .O@@@@@@@@@@@@@@@@@@@@@@@@@@@   .O@@@@@@@@@@@@@@@@@@@@@@@@@@@   .O@@@@@@@@@@@",
"@@@@@@@@@@@@@@@@   .O@@@@@@@@@@@@@@@@@@@@@@@@@@@   .O@@@@@@@@@@@@@@@@@@@@@@@@@@@   .O@@@@@@@@@@@@@@@@@@@@@@@@@@@   .O@@@@@@@@@@@",
"@@@@@@@@@@@@@@@@   .O@@@@@@@@@@@@@@@@@@@@@@@@@@@   .O@@@@@@@@@@@@@@@@@@@@@@@@@@@   .O@@@@@@@@@@@@@@@@@@@@@@@@@@@   .O@@@@@@@@@@@",
"@@@@@@@@@@@@@@@@   .O@@@@@@@@@@@@@@@@@@@@@@@@@@@   .O@@@@@@@@@@@@@@@@@@@@@@@@@@@   .O@@@@@@@@@@@@@@@@@@@@@@@@@@@   .O@@@@@@@@@@@",
"@@@@@@@@@@@@@@@@   .O@@@@@@@@@@@@@@@@@@@@@@@@@@@   .O@@@@@@@@@@@@@@@@@@@@@@@@@@@   .O@@@@@@@@@@@@@@@@@@@@@@@@@@@   .O@@@@@@@@@@@",
"                                                                                                                                ",
"                                                                                                                                ",
"                                                                                                                                ",
"...........................Xo   ...........................Xo   ...........................Xo   ...........................Xo   ",
"OOOOOOOOOOOOOOOOOOOOOOOOOOO+X   OOOOOOOOOOOOOOOOOOOOOOOOOOO+X   OOOOOOOOOOOOOOOOOOOOOOOOOOO+X   OOOOOOOOOOOOOOOOOOOOOOOOOOO+X   ",
"@@@@@@@@@@@@@@@@@@@@@@@@@@@O.   @@@@@@@@@@@@@@@@@@@@@@@@@@@O.   @@@@@@@@@@@@@@@@@@@@@@@@@@@O.   @@@@@@@@@@@@@@@@@@@@@@@@@@@O.   ",
"@@@@@@@@@@@@@@@@@@@@@@@@@@@O.   @@@@@@@@@@@@@@@@@@@@@@@@@@@O.   @@@@@@@@@@@@@@@@@@@@@@@@@@@O.   @@@@@@@@@@@@@@@@@@@@@@@@@@@O.   ",
"@@@@@@@@@@@@@@@@@@@@@@@@@@@O.   @@@@@@@@@@@@@@@@@@@@@@@@@@@O.   @@@@@@@@@@@@@@@@@@@@@@@@@@@O.   @@@@@@@@@@@@@@@@@@@@@@@@@@@O.   ",
"   .O@@@@@@@@@@@@@@@@@@@@@@@@@@@   .O@@@@@@@@@@@@@@@@@@@@@@@@@@@   .O@@@@@@@@@@@@@@@@@@@@@@@@@@@   .O@@@@@@@@@@@@@@@@@@@@@@@@@@@",
"   .O@@@@@@@@@@@@@@@@@@@@@@@@@@@   .O@@@@@@@@@@@@@@@@@@@@@@@@@@@   .O@@@@@@@@@@@@@@@@@@@@@@@@@@@   .O@@@@@@@@@@@@@@@@@@@@@@@@@@@",
"   .O@@@@@@@@@@@@@@@@@@@@@@@@@@@   .O@@@@@@@@@@@@@@@@@@@@@@@@@@@   .O@@@@@@@@@@@@@@@@@@@@@@@@@@@   .O@@@@@@@@@@@@@@@@@@@@@@@@@@@",
"   .O@@@@@@@@@@@@@@@@@@@@@@@@@@@   .O@@@@@@@@@@@@@@@@@@@@@@@@@@@   .O@@@@@@@@@@@@@@@@@@@@@@@@@@@   .O@@@@@@@@@@@@@@@@@@@@@@@@@@@",
"   .O@@@@@@@@@@@@@@@@@@@@@@@@@@@   .O@@@@@@@@@@@@@@@@@@@@@@@@@@@   .O@@@@@@@@@@@@@@@@@@@@@@@@@@@   .O@@@@@@@@@@@@@@@@@@@@@@@@@@@",
"   .O@@@@@@@@@@@@@@@@@@@@@@@@@@@   .O@@@@@@@@@@@@@@@@@@@@@@@@@@@   .O@@@@@@@@@@@@@@@@@@@@@@@@@@@   .O@@@@@@@@@@@@@@@@@@@@@@@@@@@",
"   .O@@@@@@@@@@@@@@@@@@@@@@@@@@@   .O@@@@@@@@@@@@@@@@@@@@@@@@@@@   .O@@@@@@@@@@@@@@@@@@@@@@@@@@@   .O@@@@@@@@@@@@@@@@@@@@@@@@@@@",
"   .O@@@@@@@@@@@@@@@@@@@@@@@@@@@   .O@@@@@@@@@@@@@@@@@@@@@@@@@@@   .O@@@@@@@@@@@@@@@@@@@@@@@@@@@   .O@@@@@@@@@@@@@@@@@@@@@@@@@@@",
"                                                                                                                                ",
"                                                                                                                                ",
"                                                                                                                                ",
"...........Xo   ...........................Xo   ...........................Xo   ...........................Xo   ................",
"OOOOOOOOOOO+X   OOOOOOOOOOOOOOOOOOOOOOOOOOO+X   OOOOOOOOOOOOOOOOOOOOOOOOOOO+X   OOOOOOOOOOOOOOOOOOOOOOOOOOO+X   OOOOOOOOOOOOOOOO",
"@@@@@@@@@@@O.   @@@@@@@@@@@@@@@@@@@@@@@@@@@O.   @@@@@@@@@@@@@@@@@@@@@@@@@@@O.   @@@@@@@@@@@@@@@@@@@@@@@@@@@O.   @@@@@@@@@@@@@@@@",
"@@@@@@@@@@@O.   @@@@@@@@@@@@@@@@@@@@@@@@@@@O.   @@@@@@@@@@@@@@@@@@@@@@@@@@@O.   @@@@@@@@@@@@@@@@@@@@@@@@@@@O.   @@@@@@@@@@@@@@@@",
"@@@@@@@@@@@O.   @@@@@@@@@@@@@@@@@@@@@@@@@@@O.   @@@@@@@@@@@@@@@@@@@@@@@@@@@O.   @@@@@@@@@@@@@@@@@@@@@@@@@@@O.   @@@@@@@@@@@@@@@@",
"@@@@@@@@@@@@@@@@   .O@@@@@@@@@@@@@@@@@@@@@@@@@@@   .O@@@@@@@@@@@@@@@@@@@@@@@@@@@   .O@@@@@@@@@@@@@@@@@@@@@@@@@@@   .O@@@@@@@@@@@",
"@@@@@@@@@@@@@@@@   .O@@@@@@@@@@@@@@@@@@@@@@@@@@@   .O@@@@@@@@@@@@@@@@@@@@@@@@@@@   .O@@@@@@@@@@@@@@@@@@@@@@@@@@@   .O@@@@@@@@@@@",
"@@@@@@@@@@@@@@@@   .O@@@@@@@@@@@@@@@@@@@@@@@@@@@   .O@@@@@@@@@@@@@@@@@@@@@@@@@@@   .O@@@@@@@@@@@@@@@@@@@@@@@@@@@   .O@@@@@@@@@@@",
"@@@@@@@@@@@@@@@@   .O@@@@@@@@@@@@@@@@@@@@@@@@@@@   .O@@@@@@@@@@@@@@@@@@@@@@@@@@@   .O@@@@@@@@@@@@@@@@@@@@@@@@@@@   .O@@@@@@@@@@@",
"@@@@@@@@@@@@@@@@   .O@@@@@@@@@@@@@@@@@@@@@@@@@@@   .O@@@@@@@@@@@@@@@@@@@@@@@@@@@   .O@@@@@@@@@@@@@@@@@@@@@@@@@@@   .O@@@@@@@@@@@",
"@@@@@@@@@@@@@@@@   .O@@@@@@@@@@@@@@@@@@@@@@@@@@@   .O@@@@@@@@@@@@@@@@@@@@@@@@@@@   .O@@@@@@@@@@@@@@@@@@@@@@@@@@@   .O@@@@@@@@@@@",
"@@@@@@@@@@@@@@@@   .O@@@@@@@@@@@@@@@@@@@@@@@@@@@   .O@@@@@@@@@@@@@@@@@@@@@@@@@@@   .O@@@@@@@@@@@@@@@@@@@@@@@@@@@   .O@@@@@@@@@@@",
"@@@@@@@@@@@@@@@@   .O@@@@@@@@@@@@@@@@@@@@@@@@@@@   .O@@@@@@@@@@@@@@@@@@@@@@@@@@@   .O@@@@@@@@@@@@@@@@@@@@@@@@@@@   .O@@@@@@@@@@@",
"                                                                                                                                ",
"                                                                                                                                ",
"                                                                                                                                ",
"...........................Xo   ...........................Xo   ...........................Xo   ...........................Xo   ",
"OOOOOOOOOOOOOOOOOOOOOOOOOOO+X   OOOOOOOOOOOOOOOOOOOOOOOOOOO+X   OOOOOOOOOOOOOOOOOOOOOOOOOOO+X   OOOOOOOOOOOOOOOOOOOOOOOOOOO+X   ",
"@@@@@@@@@@@@@@@@@@@@@@@@@@@O.   @@@@@@@@@@@@@@@@@@@@@@@@@@@O.   @@@@@@@@@@@@@@@@@@@@@@@@@@@O.   @@@@@@@@@@@@@@@@@@@@@@@@@@@O.   ",
"@@@@@@@@@@@@@@@@@@@@@@@@@@@O.   @@@@@@@@@@@@@@@@@@@@@@@@@@@O.   @@@@@@@@@@@@@@@@@@@@@@@@@@@O.   @@@@@@@@@@@@@@@@@@@@@@@@@@@O.   ",
"@@@@@@@@@@@@@@@@@@@@@@@@@@@O.   @@@@@@@@@@@@@@@@@@@@@@@@@@@O.   @@@@@@@@@@@@@@@@@@@@@@@@@@@O.   @@@@@@@@@@@@@@@@@@@@@@@@@@@O.   ",
"   .O@@@@@@@@@@@@@@@@@@@@@@@@@@@   .O@@@@@@@@@@@@@@@@@@@@@@@@@@@   .O@@@@@@@@@@@@@@@@@@@@@@@@@@@   .O@@@@@@@@@@@@@@@@@@@@@@@@@@@",
"   .O@@@@@@@@@@@@@@@@@@@@@@@@@@@   .O@@@@@@@@@@@@@@@@@@@@@@@@@@@   .O@@@@@@@@@@@@@@@@@@@@@@@@@@@   .O@@@@@@@@@@@@@@@@@@@@@@@@@@@",
"   .O@@@@@@@@@@@@@@@@@@@@@@@@@@@   .O@@@@@@@@@@@@@@@@@@@@@@@@@@@   .O@@@@@@@@@@@@@@@@@@@@@@@@@@@   .O@@@@@@@@@@@@@@@@@@@@@@@@@@@",
"   .O@@@@@@@@@@@@@@@@@@@@@@@@@@@   .O@@@@@@@@@@@@@@@@@@@@@@@@@@@   .O@@@@@@@@@@@@@@@@@@@@@@@@@@@   .O@@@@@@@@@@@@@@@@@@@@@@@@@@@",
"   .O@@@@@@@@@@@@@@@@@@@@@@@@@@@   .O@@@@@@@@@@@@@@@@@@@@@@@@@@@   .O@@@@@@@@@@@@@@@@@@@@@@@@@@@   .O@@@@@@@@@@@@@@@@@@@@@@@@@@@",
"   .O@@@@@@@@@@@@@@@@@@@@@@@@@@@   .O@@@@@@@@@@@@@@@@@@@@@@@@@@@   .O@@@@@@@@@@@@@@@@@@@@@@@@@@@   .O@@@@@@@@@@@@@@@@@@@@@@@@@@@",
"   .O@@@@@@@@@@@@@@@@@@@@@@@@@@@   .O@@@@@@@@@@@@@@@@@@@@@@@@@@@   .O@@@@@@@@@@@@@@@@@@@@@@@@@@@   .O@@@@@@@@@@@@@@@@@@@@@@@@@@@",
"   .O@@@@@@@@@@@@@@@@@@@@@@@@@@@   .O@@@@@@@@@@@@@@@@@@@@@@@@@@@   .O@@@@@@@@@@@@@@@@@@@@@@@@@@@   .O@@@@@@@@@@@@@@@@@@@@@@@@@@@",
"                                                                                                                                ",
"                                                                                                                                ",
"                                                                                                                                ",
"...........Xo   ...........................Xo   ...........................Xo   ...........................Xo   ................",
"OOOOOOOOOOO+X   OOOOOOOOOOOOOOOOOOOOOOOOOOO+X   OOOOOOOOOOOOOOOOOOOOOOOOOOO+X   OOOOOOOOOOOOOOOOOOOOOOOOOOO+X   OOOOOOOOOOOOOOOO",
"@@@@@@@@@@@O.   @@@@@@@@@@@@@@@@@@@@@@@@@@@O.   @@@@@@@@@@@@@@@@@@@@@@@@@@@O.   @@@@@@@@@@@@@@@@@@@@@@@@@@@O.   @@@@@@@@@@@@@@@@",
"@@@@@@@@@@@O.   @@@@@@@@@@@@@@@@@@@@@@@@@@@O.   @@@@@@@@@@@@@@@@@@@@@@@@@@@O.   @@@@@@@@@@@@@@@@@@@@@@@@@@@O.   @@@@@@@@@@@@@@@@",
"@@@@@@@@@@@O.   @@@@@@@@@@@@@@@@@@@@@@@@@@@O.   @@@@@@@@@@@@@@@@@@@@@@@@@@@O.   @@@@@@@@@@@@@@@@@@@@@@@@@@@O.   @@@@@@@@@@@@@@@@",
"@@@@@@@@@@@@@@@@   .O@@@@@@@@@@@@@@@@@@@@@@@@@@@   .O@@@@@@@@@@@@@@@@@@@@@@@@@@@   .O@@@@@@@@@@@@@@@@@@@@@@@@@@@   .O@@@@@@@@@@@",
"@@@@@@@@@@@@@@@@   .O@@@@@@@@@@@@@@@@@@@@@@@@@@@   .O@@@@@@@@@@@@@@@@@@@@@@@@@@@   .O@@@@@@@@@@@@@@@@@@@@@@@@@@@   .O@@@@@@@@@@@",
"@@@@@@@@@@@@@@@@   .O@@@@@@@@@@@@@@@@@@@@@@@@@@@   .O@@@@@@@@@@@@@@@@@@@@@@@@@@@   .O@@@@@@@@@@@@@@@@@@@@@@@@@@@   .O@@@@@@@@@@@",
"@@@@@@@@@@@@@@@@   .O@@@@@@@@@@@@@@@@@@@@@@@@@@@   .O@@@@@@@@@@@@@@@@@@@@@@@@@@@   .O@@@@@@@@@@@@@@@@@@@@@@@@@@@   .O@@@@@@@@@@@",
"@@@@@@@@@@@@@@@@   .O@@@@@@@@@@@@@@@@@@@@@@@@@@@   .O@@@@@@@@@@@@@@@@@@@@@@@@@@@   .O@@@@@@@@@@@@@@@@@@@@@@@@@@@   .O@@@@@@@@@@@",
"@@@@@@@@@@@@@@@@   .O@@@@@@@@@@@@@@@@@@@@@@@@@@@   .O@@@@@@@@@@@@@@@@@@@@@@@@@@@   .O@@@@@@@@@@@@@@@@@@@@@@@@@@@   .O@@@@@@@@@@@",
"@@@@@@@@@@@@@@@@   .O@@@@@@@@@@@@@@@@@@@@@@@@@@@   .O@@@@@@@@@@@@@@@@@@@@@@@@@@@   .O@@@@@@@@@@@@@@@@@@@@@@@@@@@   .O@@@@@@@@@@@",
"@@@@@@@@@@@@@@@@   .O@@@@@@@@@@@@@@@@@@@@@@@@@@@   .O@@@@@@@@@@@@@@@@@@@@@@@@@@@   .O@@@@@@@@@@@@@@@@@@@@@@@@@@@   .O@@@@@@@@@@@"
};
