/* XPM */
static char *b978ab62ca6d4785b74878ce37d74453cTuIwGnh4GW4Zu6E[] = {
/* columns rows colors chars-per-pixel */
"128 128 83 1 ",
"  c #2F3D45",
". c #2A373E",
"X c #050607",
"o c black",
"O c #041308",
"+ c #20A744",
"@ c #23BA4B",
"# c #24AE4A",
"$ c #2E4A46",
"% c #041108",
"& c #219C43",
"* c #25A24A",
"= c #2E4846",
"- c #24AF4A",
"; c #23B94B",
": c #23B84A",
"> c #20A944",
", c #050707",
"< c #29423F",
"1 c #2F3E45",
"2 c #2D5546",
"3 c #07230E",
"4 c #000101",
"5 c #040606",
"6 c #263238",
"7 c #110711",
"8 c #973F97",
"9 c #A846A8",
"0 c #100710",
"q c #933D91",
"w c #A343A2",
"e c #0D050B",
"r c #722A63",
"t c #7F2F6E",
"y c #0C040A",
"u c #6E285D",
"i c #7A2C67",
"p c #3B3E4F",
"a c #9C459E",
"s c #20A844",
"d c #08180E",
"f c #24AD4A",
"g c #2A443F",
"h c #9B529F",
"j c #9C50A0",
"k c #A747A7",
"l c #141818",
"z c #984198",
"x c #30AE54",
"c c #3CA45D",
"v c #2D9E4E",
"b c #9A509E",
"n c #21A845",
"m c #2FAE53",
"M c #131917",
"N c #8C4B90",
"B c #219D44",
"V c #08170E",
"C c #2B393F",
"Z c #2D4845",
"A c #2F3C44",
"S c #2B383F",
"D c #2C5345",
"F c #219E44",
"G c #1D993E",
"H c #06210E",
"J c #07220E",
"K c #090C0D",
"L c #2CAC4E",
"P c #2BAD4E",
"I c #24B94B",
"U c #28323A",
"Y c #130C15",
"T c #200D20",
"R c #994099",
"E c #713A64",
"W c #6A4762",
"Q c #893989",
"! c #A645A6",
"~ c #0F0810",
"^ c #8B498F",
"/ c #051109",
"( c #2C9D4C",
/* pixels */
"                   .XooooooO+@@@@@@@@@@@@@@#$                      $#@@@@@@@@@@@                        @@@@@@@@@@@@@@@@oooooooo",
"                   .XooooooO+@@@@@@@@@@@@@@#$                      $#@@@@@@@@@@@                        @@@@@@@@@@@@@@@@oooooooo",
"                   .XooooooO+@@@@@@@@@@@@@@#$                      $#@@@@@@@@@@@                        @@@@@@@@@@@@@@@@oooooooo",
"........           .Xoooooo%&###@@@@@@@@###*=                      $#@@@@@@@@@@@                        ###-;@@@@@@:>+++oooooooo",
"XXXXXXXX           .Xoooooo,<$$$@@@@@@@@$$$=1                      $#@@@@@@@@@@@                        $$$2-@@@@@@>3OOOoooooooo",
"oooooooo           .XooooooX.   @@@@@@@@                           $#@@@@@@@@@@@                           $#@@@@@@+Oooooooooooo",
"oooooooo           .XooooooX.   @@@@@@@@                           $#@@@@@@@@@@@                           $#@@@@@@+Oooooooooooo",
"oooooooo           .XooooooX.   @@@@@@@@                           $#@@@@@@@@@@@                           $#@@@@@@+Oooooooooooo",
"oooooooo   $#@@@@@@@@@@@@@@#$   @@@@@@@@                @@@@@@@@@@@+Oooooooooooo@@@@@@@@@@@#$              $#@@@@@@+Oooooooooooo",
"oooooooo   $#@@@@@@@@@@@@@@#$   @@@@@@@@                @@@@@@@@@@@+Oooooooooooo@@@@@@@@@@@#$              $#@@@@@@+Oooooooooooo",
"oooooooo   $#@@@@@@@@@@@@@@#$   @@@@@@@@                @@@@@@@@@@@+Oooooooooooo@@@@@@@@@@@#$              $#@@@@@@+Oooooooooooo",
"OOOOOOOO   $#@@@@@@@@@@@@@@#$   ########                @@@@@@@@@@@+Oooooooooooo@@@@@@@@@@@#$              $#@@@@@@+Ooooooo45XXX",
"++++++++   $#@@@@@@@@@@@@@@#$   $$$$$$$$                @@@@@@@@@@@+Oooooooooooo@@@@@@@@@@@#$              $#@@@@@@+Ooooooo56...",
"@@@@@@@@   $#@@@@@@@@@@@@@@#$                           @@@@@@@@@@@+Oooooooooooo@@@@@@@@@@@#$              $#@@@@@@+OooooooX.   ",
"@@@@@@@@   $#@@@@@@@@@@@@@@#$                           @@@@@@@@@@@+Oooooooooooo@@@@@@@@@@@#$              $#@@@@@@+OooooooX.   ",
"@@@@@@@@   $#@@@@@@@@@@@@@@#$                           @@@@@@@@@@@+Oooooooooooo@@@@@@@@@@@#$              $#@@@@@@+OooooooX.   ",
"@@@@@@@@        @@@@@@@@                        @@@@@@@@@@@+Ooooooo7899999999999oooooooo   $#@@@@@@@@@@@@@@#$                   ",
"@@@@@@@@        @@@@@@@@                        @@@@@@@@@@@+Ooooooo7899999999999oooooooo   $#@@@@@@@@@@@@@@#$                   ",
"@@@@@@@@        @@@@@@@@                        @@@@@@@@@@@+Ooooooo7899999999999oooooooo   $#@@@@@@@@@@@@@@#$                   ",
"@@@@@@@@$$$=1   @@@@@@@@                        @@@@@@@@@@@+Ooooooo0qwwwwwwwwwwwoooooooo   $#@@@@@@@@@@@@@@#$           ........",
"@@@@@@@@###*=   @@@@@@@@                        @@@@@@@@@@@+Oooooooertttttttttttoooooooo   $#@@@@@@@@@@@@@@#$           XXXXXXXX",
"@@@@@@@@@@@#$   @@@@@@@@                        @@@@@@@@@@@+Oooooooyuiiiiiiiiiiioooooooo   $#@@@@@@@@@@@@@@#$           oooooooo",
"@@@@@@@@@@@#$   @@@@@@@@                        @@@@@@@@@@@+Oooooooyuiiiiiiiiiiioooooooo   $#@@@@@@@@@@@@@@#$           oooooooo",
"@@@@@@@@@@@#$   @@@@@@@@                        @@@@@@@@@@@+Oooooooyuiiiiiiiiiiioooooooo   $#@@@@@@@@@@@@@@#$           oooooooo",
"@@@@@@@@@@@#$   oooooooooooX.                           oooooooo9999999999999999oooooooo   .XooooooX.           oooooooooooooooo",
"@@@@@@@@@@@#$   oooooooooooX.                           oooooooo9999999999999999oooooooo   .XooooooX.           oooooooooooooooo",
"@@@@@@@@@@@#$   oooooooooooX.                           oooooooo9999999999999999oooooooo   .XooooooX.           oooooooooooooooo",
"###########*=   oooooooooooX.                           oooooooo9999999999999999oooooooo   .XooooooX.           oooooooooooooooo",
"$$$$$$$$$$$=1   oooooooooooX.                           oooooooo9999999999999999oooooooo   .XooooooX.           oooooooooooooooo",
"                oooooooooooX.                           oooooooo9999999999999999oooooooo   .XooooooX.           oooooooooooooooo",
"                oooooooooooX.                           oooooooo9999999999999999oooooooo   .XooooooX.           oooooooooooooooo",
"                oooooooooooX.                           oooooooo9999999999999999oooooooo   .XooooooX.           oooooooooooooooo",
"@@@@@@@@@@@#$      pa99999987ooooooooooo        ooooooooiiitw9999999999999999999oooooooo   .Xoooooooooooooooooooooo78999oooooooo",
"@@@@@@@@@@@#$      pa99999987ooooooooooo        ooooooooiiitw9999999999999999999oooooooo   .Xoooooooooooooooooooooo78999oooooooo",
"@@@@@@@@@@@#$      pa99999987ooooooooooo        ooooooooiiitw9999999999999999999oooooooo   .Xoooooooooooooooooooooo78999oooooooo",
"@@@@@@@@@@@#$      pa99999987ooooooooooo        ooooooooiiitw9999999999999999999oooooooo   .Xoooooooooooooooooooooo7899977777777",
"@@@@@@@@@@@#$      pa99999987ooooooooooo        ooooooooiiitw9999999999999999999oooooooo   .Xoooooooooooooooooooooo7899988888888",
"@@@@@@@@@@@#$      pa99999987ooooooooooo        ooooooooiiitw9999999999999999999oooooooo   .Xoooooooooooooooooooooo7899999999999",
"@@@@@@@@@@@#$      pa99999987ooooooooooo        ooooooooiiitw9999999999999999999oooooooo   .Xoooooooooooooooooooooo7899999999999",
"@@@@@@@@@@@#$      pa99999987ooooooooooo        ooooooooiiitw9999999999999999999oooooooo   .Xoooooooooooooooooooooo7899999999999",
"@@@@@@@@oooooooo   pa99999987ooooooO+@@@@@@@@@@@oooooooooooooooooooO+@@@@@@@@@@@@@@+Oooo        @@@@@@@@@@@+Oooooooyuiiiiiiiiiii",
"@@@@@@@@oooooooo   pa99999987ooooooO+@@@@@@@@@@@oooooooooooooooooooO+@@@@@@@@@@@@@@+Oooo        @@@@@@@@@@@+Oooooooyuiiiiiiiiiii",
"@@@@@@@@oooooooo   pa99999987ooooooO+@@@@@@@@@@@oooooooooooooooooooO+@@@@@@@@@@@@@@+Oooo        @@@@@@@@@@@+Oooooooyuiiiiiiiiiii",
"@@@@@@@@oooooooo   pa99999987ooooooO+@@@@@@@@@@@oooooooooooooooooooO+@@@@@@@@@@@@@@sdXXX        @@@@@@@@@@@+Oooooooerttttttttttt",
"@@@@@@@@oooooooo   pa99999987ooooooO+@@@@@@@@@@@oooooooooooooooooooO+@@@@@@@@@@@@@@fg...        @@@@@@@@@@@+Ooooooo0qwwwwwwwwwww",
"@@@@@@@@oooooooo   pa99999987ooooooO+@@@@@@@@@@@oooooooooooooooooooO+@@@@@@@@@@@@@@#$           @@@@@@@@@@@+Ooooooo7899999999999",
"@@@@@@@@oooooooo   pa99999987ooooooO+@@@@@@@@@@@oooooooooooooooooooO+@@@@@@@@@@@@@@#$           @@@@@@@@@@@+Ooooooo7899999999999",
"@@@@@@@@oooooooo   pa99999987ooooooO+@@@@@@@@@@@oooooooooooooooooooO+@@@@@@@@@@@@@@#$           @@@@@@@@@@@+Ooooooo7899999999999",
"                @@@@@@@@@@@@@@@@@@@@@@@@        oooooooo99999999oooooooo@@@@@@@@oooooooo        @@@@@@@@   .Xoooooo7899999999999",
"                @@@@@@@@@@@@@@@@@@@@@@@@        oooooooo99999999oooooooo@@@@@@@@oooooooo        @@@@@@@@   .Xoooooo7899999999999",
"                @@@@@@@@@@@@@@@@@@@@@@@@        oooooooo99999999oooooooo@@@@@@@@oooooooo        @@@@@@@@   .Xoooooo7899999999999",
"$$$$$$$$        @@@@@@@@@@@@@@@@@@@@@@@@        OOOOOOOOhhhjk999oooooooo@@@@@@@@oooooooo        ########$$$gdOOOOOOlz99999999999",
"########        @@@@@@@@@@@@@@@@@@@@@@@@        ++++++++xxxcj999oooooooo@@@@@@@@oooooooo        $$$$$$$$###fs++++++vb99999999999",
"@@@@@@@@        @@@@@@@@@@@@@@@@@@@@@@@@        @@@@@@@@@@@xh999oooooooo@@@@@@@@oooooooo                @@@@@@@@@@@xh99999999999",
"@@@@@@@@        @@@@@@@@@@@@@@@@@@@@@@@@        @@@@@@@@@@@xh999oooooooo@@@@@@@@oooooooo                @@@@@@@@@@@xh99999999999",
"@@@@@@@@        @@@@@@@@@@@@@@@@@@@@@@@@        @@@@@@@@@@@xh999oooooooo@@@@@@@@oooooooo                @@@@@@@@@@@xh99999999999",
"@@@@@@@@                   $#@@@@@@+Oooooooooooo@@@@@@@@@@@@@@@@99999999oooooooo                   .Xooo@@@@@@@@@@@xh99999999999",
"@@@@@@@@                   $#@@@@@@+Oooooooooooo@@@@@@@@@@@@@@@@99999999oooooooo                   .Xooo@@@@@@@@@@@xh99999999999",
"@@@@@@@@                   $#@@@@@@+Oooooooooooo@@@@@@@@@@@@@@@@99999999oooooooo                   .Xooo@@@@@@@@@@@xh99999999999",
"@@@@@@@@$$$$$$$$           $#@@@@@@+Oooooooooooo@@@@@@@@@@@@@@@@hhhbz888oooooooo                   .Xooo+++nmxxxxxxcj999hhhhhhhh",
"@@@@@@@@########           $#@@@@@@+Oooooooooooo@@@@@@@@@@@@@@@@xxxvl777oooooooo                   .XoooOOOMNhhhhhhjk999xxxxxxxx",
"@@@@@@@@@@@@@@@@           $#@@@@@@+Oooooooooooo@@@@@@@@@@@@@@@@@@@+Oooooooooooo                   .Xoooooo7899999999999@@@@@@@@",
"@@@@@@@@@@@@@@@@           $#@@@@@@+Oooooooooooo@@@@@@@@@@@@@@@@@@@+Oooooooooooo                   .Xoooooo7899999999999@@@@@@@@",
"@@@@@@@@@@@@@@@@           $#@@@@@@+Oooooooooooo@@@@@@@@@@@@@@@@@@@+Oooooooooooo                   .Xoooooo7899999999999@@@@@@@@",
"@@@@@@@@@@@@@@@@           .Xoooooo7899999987ooooooO+@@@@@@@@@@@@@@+Oooooooooooo                oooooooo@@@@@@@@oooooooooooO+@@@",
"@@@@@@@@@@@@@@@@           .Xoooooo7899999987ooooooO+@@@@@@@@@@@@@@+Oooooooooooo                oooooooo@@@@@@@@oooooooooooO+@@@",
"@@@@@@@@@@@@@@@@           .Xoooooo7899999987ooooooO+@@@@@@@@@@@@@@+Oooooooooooo                oooooooo@@@@@@@@oooooooooooO+@@@",
"@@@@@@@@########           .Xoooooo0qwwwwwwq0ooooooO+@@@@@@@@@@@###BVXXXoooooooo...........CZ$$$oooooooo@@@@@@@@ooooooooooo%&###",
"@@@@@@@@$$$$$$$$           .XooooooerttttttreooooooO+@@@@@@@@@@@$$$ZC...ooooooooXXXXXXXXXXXVB###oooooooo@@@@@@@@ooooooooooo,<$$$",
"@@@@@@@@                   .XooooooyuiiiiiiuyooooooO+@@@@@@@@@@@        oooooooooooooooooooO+@@@oooooooo@@@@@@@@oooooooooooX.   ",
"@@@@@@@@                   .XooooooyuiiiiiiuyooooooO+@@@@@@@@@@@        oooooooooooooooooooO+@@@oooooooo@@@@@@@@oooooooooooX.   ",
"@@@@@@@@                   .XooooooyuiiiiiiuyooooooO+@@@@@@@@@@@        oooooooooooooooooooO+@@@oooooooo@@@@@@@@oooooooooooX.   ",
"@@@@@@@@           .Xoooooo789999999999999999999oooooooo@@@@@@@@        oooooooooooooooooooO+@@@@@@#$   @@@@@@@@   $#@@@@@@#$   ",
"@@@@@@@@           .Xoooooo789999999999999999999oooooooo@@@@@@@@        oooooooooooooooooooO+@@@@@@#$   @@@@@@@@   $#@@@@@@#$   ",
"@@@@@@@@           .Xoooooo789999999999999999999oooooooo@@@@@@@@        oooooooooooooooooooO+@@@@@@#$   @@@@@@@@   $#@@@@@@#$   ",
"########   1=$$$$$$<,oooooo789999999999999999999oooooooo########   1=$$$OOOOOOOOOOO%,XXXXXXds@@@@@@#$   ########   $#@@@@@@#$   ",
"$$$$$$$$   =*######&%oooooo789999999999999999999oooooooo$$$$$$$$   =*###+++++++++++&<......gf@@@@@@#$   $$$$$$$$   $#@@@@@@#$   ",
"           $#@@@@@@+Ooooooo789999999999999999999oooooooo           $#@@@@@@@@@@@@@@#$      $#@@@@@@#$              $#@@@@@@#$   ",
"           $#@@@@@@+Ooooooo789999999999999999999oooooooo           $#@@@@@@@@@@@@@@#$      $#@@@@@@#$              $#@@@@@@#$   ",
"           $#@@@@@@+Ooooooo789999999999999999999oooooooo           $#@@@@@@@@@@@@@@#$      $#@@@@@@#$              $#@@@@@@#$   ",
"   $#@@@@@@@@@@@@@@+Ooooooo7899999999999oooooooooooooooo           $#@@@@@@@@@@@@@@#$           @@@@@@@@        @@@@@@@@@@@@@@@@",
"   $#@@@@@@@@@@@@@@+Ooooooo7899999999999oooooooooooooooo           $#@@@@@@@@@@@@@@#$           @@@@@@@@        @@@@@@@@@@@@@@@@",
"   $#@@@@@@@@@@@@@@+Ooooooo7899999999999oooooooooooooooo           $#@@@@@@@@@@@@@@#$           @@@@@@@@        @@@@@@@@@@@@@@@@",
"   $#@@@@@@@@@@@@@@+Ooooooo7899999999999ooooooooXXXXXXXX        $$$2-@@@@@@@@@@@@@@-2$$$        @@@@@@@@........@@@@@@@@@@@@@@@@",
"   $#@@@@@@@@@@@@@@+Ooooooo7899999999999oooooooo........        ###-;@@@@@@@@@@@@@@;-###        @@@@@@@@XXXXXXXX@@@@@@@@@@@@@@@@",
"   $#@@@@@@@@@@@@@@+Ooooooo7899999999999oooooooo                @@@@@@@@@@@@@@@@@@@@@@@@        @@@@@@@@oooooooo@@@@@@@@@@@@@@@@",
"   $#@@@@@@@@@@@@@@+Ooooooo7899999999999oooooooo                @@@@@@@@@@@@@@@@@@@@@@@@        @@@@@@@@oooooooo@@@@@@@@@@@@@@@@",
"   $#@@@@@@@@@@@@@@+Ooooooo7899999999999oooooooo                @@@@@@@@@@@@@@@@@@@@@@@@        @@@@@@@@oooooooo@@@@@@@@@@@@@@@@",
"           $#@@@@@@#$   oooooooooooooooo@@@@@@@@@@@#$           @@@@@@@@@@@@@@@@@@@@@@@@        oooooooooooooooo   $#@@@@@@#$   ",
"           $#@@@@@@#$   oooooooooooooooo@@@@@@@@@@@#$           @@@@@@@@@@@@@@@@@@@@@@@@        oooooooooooooooo   $#@@@@@@#$   ",
"           $#@@@@@@#$   oooooooooooooooo@@@@@@@@@@@#$           @@@@@@@@@@@@@@@@@@@@@@@@        oooooooooooooooo   $#@@@@@@#$   ",
"           =*###+++&<...oooooooooooooooo@@@@@@@@@@@#$           @@@@@@@@@@@@@@@@@@@@@@@@        oooooooooooooooo   $#@@@@@@#$   ",
"           1=$$$OOO%,XXXoooooooooooooooo@@@@@@@@@@@#$           @@@@@@@@@@@@@@@@@@@@@@@@        oooooooooooooooo   $#@@@@@@#$   ",
"                oooooooooooooooooooooooo@@@@@@@@@@@#$           @@@@@@@@@@@@@@@@@@@@@@@@        oooooooooooooooo   $#@@@@@@#$   ",
"                oooooooooooooooooooooooo@@@@@@@@@@@#$           @@@@@@@@@@@@@@@@@@@@@@@@        oooooooooooooooo   $#@@@@@@#$   ",
"                oooooooooooooooooooooooo@@@@@@@@@@@#$           @@@@@@@@@@@@@@@@@@@@@@@@        oooooooooooooooo   $#@@@@@@#$   ",
"                oooooooo        oooooooo@@@@@@@@@@@@@@@@           $#@@@@@@@@@@@@@@#$                                           ",
"                oooooooo        oooooooo@@@@@@@@@@@@@@@@           $#@@@@@@@@@@@@@@#$                                           ",
"                oooooooo        oooooooo@@@@@@@@@@@@@@@@           $#@@@@@@@@@@@@@@#$                                           ",
"        ........OOOOOOOO$$$=1   XXXXXXXX###-;@@@@@@@@@@@           =*###@@@@@@@@@@@#$              1=$$$$$$ZC......CZ$$$$$$$$$$$",
"        XXXXXXXX++++++++###*=   ........$$$2-@@@@@@@@@@@           1=$$$@@@@@@@@@@@#$              =*######BVXXXXXXVB###########",
"        oooooooo@@@@@@@@@@@#$              $#@@@@@@@@@@@                @@@@@@@@@@@#$              $#@@@@@@+OooooooO+@@@@@@@@@@@",
"        oooooooo@@@@@@@@@@@#$              $#@@@@@@@@@@@                @@@@@@@@@@@#$              $#@@@@@@+OooooooO+@@@@@@@@@@@",
"        oooooooo@@@@@@@@@@@#$              $#@@@@@@@@@@@                @@@@@@@@@@@#$              $#@@@@@@+OooooooO+@@@@@@@@@@@",
"        oooooooo@@@@@@@@@@@#$              $#@@@@@@#$              .Xooooooooooooooooooo           $#@@@@@@+OooooooO+@@@@@@@@@@@",
"        oooooooo@@@@@@@@@@@#$              $#@@@@@@#$              .Xooooooooooooooooooo           $#@@@@@@+OooooooO+@@@@@@@@@@@",
"        oooooooo@@@@@@@@@@@#$              $#@@@@@@#$              .Xooooooooooooooooooo           $#@@@@@@+OooooooO+@@@@@@@@@@@",
"........77777777@@@@@@@@@@@-2$$$           =*######*=      AS......65ooooooooooooooooooo$$$$$$$$$$$DF++++++GHOOOOOOJF######-;@@@",
"XXXXXXXX88888888@@@@@@@@@@@;-###           1=$$$$$$=1      SKXXXXXX54ooooooooooooooooooo###########FJOOOOOOHG++++++FD$$$$$$2-@@@",
"oooooooo99999999@@@@@@@@@@@@@@@@                           .Xooooooooooooooooooooooooooo@@@@@@@@@@@+OooooooO+@@@@@@#$      $#@@@",
"oooooooo99999999@@@@@@@@@@@@@@@@                           .Xooooooooooooooooooooooooooo@@@@@@@@@@@+OooooooO+@@@@@@#$      $#@@@",
"oooooooo99999999@@@@@@@@@@@@@@@@                           .Xooooooooooooooooooooooooooo@@@@@@@@@@@+OooooooO+@@@@@@#$      $#@@@",
"ooooooooiiiiiiii@@@@@@@@@@@@@@@@                           .Xoooooo7899999999999oooooooo@@@@@@@@@@@+OooooooO+@@@@@@#$      $#@@@",
"ooooooooiiiiiiii@@@@@@@@@@@@@@@@                           .Xoooooo7899999999999oooooooo@@@@@@@@@@@+OooooooO+@@@@@@#$      $#@@@",
"ooooooooiiiiiiii@@@@@@@@@@@@@@@@                           .Xoooooo7899999999999oooooooo@@@@@@@@@@@+OooooooO+@@@@@@#$      $#@@@",
"oooooooottttttttLLLPI@@@@@@:>+++...........................UY777777TR99999999999OOOOOOOO@@@@@@@@@@@>3OOOOOO3>@@@###*=      =*###",
"oooooooowwwwwwwwEEEWP@@@@@@>3OOOXXXXXXXXXXXXXXXXXXXXXXXXXXXYQ888888R!99999999999++++++++@@@@@@@@@@@:>++++++>:@@@$$$=1      1=$$$",
"oooooooo99999999iiiEL@@@@@@+Ooooooooooooooooooooooooooooooo789999999999999999999@@@@@@@@@@@@@@@@@@@@@@@@@@@@@@@@                ",
"oooooooo99999999iiiEL@@@@@@+Ooooooooooooooooooooooooooooooo789999999999999999999@@@@@@@@@@@@@@@@@@@@@@@@@@@@@@@@                ",
"oooooooo99999999iiiEL@@@@@@+Ooooooooooooooooooooooooooooooo789999999999999999999@@@@@@@@@@@@@@@@@@@@@@@@@@@@@@@@                ",
"@@@@@@@@99999999ooooooooooooooooooooooooooooooooooooooooooo7899999987ooooooooooo@@@@@@@@@@@@@@@@@@@@@@@@@@@@@@@@@@@@@@@@oooooooo",
"@@@@@@@@99999999ooooooooooooooooooooooooooooooooooooooooooo7899999987ooooooooooo@@@@@@@@@@@@@@@@@@@@@@@@@@@@@@@@@@@@@@@@oooooooo",
"@@@@@@@@99999999ooooooooooooooooooooooooooooooooooooooooooo7899999987ooooooooooo@@@@@@@@@@@@@@@@@@@@@@@@@@@@@@@@@@@@@@@@oooooooo",
"@@@@@@@@99999999ooooooooooooooooOOOOOOOO77777777ooooooooooo~^hhhhhh^~oooooooooooxxxxxxxxxxxxxxxxxxxxxxxxxxxxxxxx@@@@@@@@oooooooo",
"@@@@@@@@99999999oooooooooooooooo++++++++88888888ooooooooooo/(xxxxxx(/ooooooooooohhhhhhhhhhhhhhhhhhhhhhhhhhhhhhhh@@@@@@@@oooooooo",
"@@@@@@@@99999999oooooooooooooooo@@@@@@@@99999999oooooooooooO+@@@@@@+Oooooooooooo99999999999999999999999999999999@@@@@@@@oooooooo",
"@@@@@@@@99999999oooooooooooooooo@@@@@@@@99999999oooooooooooO+@@@@@@+Oooooooooooo99999999999999999999999999999999@@@@@@@@oooooooo",
"@@@@@@@@99999999oooooooooooooooo@@@@@@@@99999999oooooooooooO+@@@@@@+Oooooooooooo99999999999999999999999999999999@@@@@@@@oooooooo"
};
